<svg width="12" height="12" viewBox="0 0 12 12" fill="none" xmlns="http://www.w3.org/2000/svg">
<path id="Union" fill-rule="evenodd" clip-rule="evenodd" d="M7.14574 8.55995C6.45201 8.99709 5.63054 9.25 4.75 9.25C2.26472 9.25 0.25 7.23528 0.25 4.75C0.25 2.26472 2.26472 0.25 4.75 0.25C7.23528 0.25 9.25 2.26472 9.25 4.75C9.25 5.63054 8.99709 6.45201 8.55995 7.14574L11.4571 10.0429C11.8476 10.4334 11.8476 11.0666 11.4571 11.4571C11.0666 11.8476 10.4334 11.8476 10.0429 11.4571L7.14574 8.55995ZM7.25 4.75C7.25 6.13071 6.13071 7.25 4.75 7.25C3.36929 7.25 2.25 6.13071 2.25 4.75C2.25 3.36929 3.36929 2.25 4.75 2.25C6.13071 2.25 7.25 3.36929 7.25 4.75Z" fill="#181818"/>
</svg>
